<?xml version="1.0" standalone="no"?><!DOCTYPE svg PUBLIC "-//W3C//DTD SVG 1.1//EN" "http://www.w3.org/Graphics/SVG/1.1/DTD/svg11.dtd"><svg t="1741670457688" class="icon" viewBox="0 0 1024 1024" version="1.1" xmlns="http://www.w3.org/2000/svg" p-id="1541" xmlns:xlink="http://www.w3.org/1999/xlink" width="200" height="200"><path d="M511.998862 1023.997724a512.56775 512.56775 0 0 1-511.998862-511.998862 512.56775 512.56775 0 0 1 511.998862-511.998862 512.56775 512.56775 0 0 1 511.998862 511.998862 512.795305 512.795305 0 0 1-170.666287 381.609819 34.133257 34.133257 0 0 0-7.566205-34.133258l-50.57411-53.589214a128.454826 128.454826 0 0 0-11.832863-167.252962 127.089495 127.089495 0 0 0-90.453132-37.489694 127.089495 127.089495 0 0 0-90.453132 37.489694 128.113493 128.113493 0 0 0 0 180.906265 127.089495 127.089495 0 0 0 90.510021 37.489695 127.601494 127.601494 0 0 0 47.900338-9.272869l0.341332 0.341333 0.284444 0.341332 54.670101 57.912761a33.791925 33.791925 0 0 0 24.860389 10.751976 34.133257 34.133257 0 0 0 4.721767-0.341333A507.04954 507.04954 0 0 1 511.998862 1023.997724z m-242.915016-432.809704a127.089495 127.089495 0 0 0-90.453132 37.489694 126.975718 126.975718 0 0 0-37.489694 90.453132 127.089495 127.089495 0 0 0 37.489694 90.453133 127.032607 127.032607 0 0 0 90.396244 37.489694 127.089495 127.089495 0 0 0 90.453132-37.489694 128.341048 128.341048 0 0 0 21.276397-152.746328l228.977269-202.125773a126.520608 126.520608 0 0 0 75.718943 24.86039 127.089495 127.089495 0 0 0 90.453132-37.489695 127.089495 127.089495 0 0 0 37.489695-90.453132 127.089495 127.089495 0 0 0-37.489695-90.453133 127.089495 127.089495 0 0 0-90.453132-37.489694 127.089495 127.089495 0 0 0-90.453132 37.489694 127.487717 127.487717 0 0 0-27.534161 139.889467l-234.723034 207.131985a127.772161 127.772161 0 0 0-63.658526-17.00974z m0-403.910214a126.975718 126.975718 0 0 0-90.396243 37.489695 126.975718 126.975718 0 0 0-37.489695 90.453132 127.089495 127.089495 0 0 0 37.489695 90.453132 127.032607 127.032607 0 0 0 90.396243 37.489695 127.089495 127.089495 0 0 0 90.453133-37.489695 127.772161 127.772161 0 0 0 23.722614-148.252115l228.351492-187.391583a34.133257 34.133257 0 0 0 12.287973-23.096838 33.791925 33.791925 0 0 0-7.566205-24.974167 34.133257 34.133257 0 0 0-26.396386-12.515527 34.133257 34.133257 0 0 0-21.61773 7.736871L337.179695 206.84754a127.544605 127.544605 0 0 0-68.095849-19.626623z m423.821281 612.691972a70.542065 70.542065 0 0 1-50.232777-20.764398 70.428288 70.428288 0 0 1-20.764399-50.175889 70.428288 70.428288 0 0 1 20.764399-50.175888 70.712732 70.712732 0 0 1 50.232777-20.764399 70.542065 70.542065 0 0 1 50.232777 20.764399 70.428288 70.428288 0 0 1 20.764398 50.175888 70.428288 70.428288 0 0 1-20.764398 50.175889 70.542065 70.542065 0 0 1-50.232777 20.707509z m-423.821281-9.898645a70.542065 70.542065 0 0 1-50.232777-20.764398 70.542065 70.542065 0 0 1-20.764398-50.232777 70.542065 70.542065 0 0 1 20.764398-50.232778 70.712732 70.712732 0 0 1 50.232777-20.764398 70.542065 70.542065 0 0 1 50.232778 20.764398 70.542065 70.542065 0 0 1 20.764398 50.232778 70.542065 70.542065 0 0 1-20.764398 50.232777 70.542065 70.542065 0 0 1-50.289666 20.764398z m416.425742-367.501405a70.428288 70.428288 0 0 1-50.175889-20.764399 70.428288 70.428288 0 0 1-20.764398-50.175888 70.428288 70.428288 0 0 1 20.764398-50.175889 70.485177 70.485177 0 0 1 50.175889-20.764398 70.542065 70.542065 0 0 1 50.232777 20.764398 70.428288 70.428288 0 0 1 20.764398 50.175889 70.428288 70.428288 0 0 1-20.764398 50.175888 70.542065 70.542065 0 0 1-50.289666 20.70751z m-416.425742-36.408808a70.542065 70.542065 0 0 1-50.232777-20.764399 70.542065 70.542065 0 0 1-20.764398-50.232777 70.542065 70.542065 0 0 1 20.764398-50.232777 70.712732 70.712732 0 0 1 50.232777-20.764398 70.542065 70.542065 0 0 1 50.232778 20.764398 70.542065 70.542065 0 0 1 20.764398 50.232777 70.542065 70.542065 0 0 1-20.764398 50.232777 70.542065 70.542065 0 0 1-50.289666 20.764399z" fill="#1296db" p-id="1542"></path></svg>